<?xml version="1.0" encoding="UTF-8" standalone="no"?><!DOCTYPE svg PUBLIC "-//W3C//DTD SVG 1.1//EN" "http://www.w3.org/Graphics/SVG/1.1/DTD/svg11.dtd"><svg width="30px" height="30px" version="1.1" xmlns="http://www.w3.org/2000/svg" xmlns:xlink="http://www.w3.org/1999/xlink" xml:space="preserve" xmlns:serif="http://www.serif.com/" style="fill-rule:evenodd;clip-rule:evenodd;stroke-linejoin:round;stroke-miterlimit:2;"><g id="view-calendar-off"><path id="Calender" d="M16.263,15.421c-0.465,0 -0.842,0.377 -0.842,0.842c0,0.465 0.378,0.842 0.842,0.842c0.465,0 0.842,-0.377 0.842,-0.842c0,-0.465 -0.376,-0.842 -0.842,-0.842Zm-2.526,-0.842c0.465,0 0.842,-0.377 0.842,-0.842c0,-0.465 -0.377,-0.842 -0.842,-0.842c-0.465,0 -0.842,0.377 -0.842,0.842c0,0.465 0.377,0.842 0.842,0.842Zm2.526,-1.684c-0.465,0 -0.842,0.377 -0.842,0.842c0,0.465 0.377,0.842 0.842,0.842c0.465,0 0.842,-0.377 0.842,-0.842c0,-0.465 -0.376,-0.842 -0.842,-0.842Zm0.842,-4.211l-4.21,0l0,1.684l4.21,0l0,-1.684Zm1.685,5.895c0.464,0 0.842,-0.377 0.842,-0.842c0,-0.465 -0.377,-0.842 -0.842,-0.842c-0.466,0 -0.842,0.377 -0.842,0.842c0,0.465 0.377,0.842 0.842,0.842Zm0,2.526c0.464,0 0.842,-0.377 0.842,-0.842c0,-0.465 -0.377,-0.842 -0.842,-0.842c-0.466,0 -0.842,0.377 -0.842,0.842c0,0.465 0.377,0.842 0.842,0.842Zm-5.053,0c0.465,0 0.842,-0.377 0.842,-0.842c0,-0.465 -0.377,-0.842 -0.842,-0.842c-0.465,0 -0.842,0.377 -0.842,0.842c0,0.465 0.377,0.842 0.842,0.842Zm-2.526,2.527c0.464,0 0.842,-0.378 0.842,-0.842c0,-0.466 -0.378,-0.843 -0.842,-0.843c-0.466,0 -0.843,0.377 -0.843,0.843c0,0.464 0.378,0.842 0.843,0.842Zm10.105,-10.948l-0.842,0l0,1.684l0.842,0l0,10.948l-12.632,0l0,-10.948l0.842,0l0,-1.684l-0.842,0c-0.93,0 -1.684,0.754 -1.684,1.684l0,10.947c0,0.931 0.754,1.685 1.684,1.685l12.632,0c0.93,0 1.684,-0.754 1.684,-1.685l0,-10.947c0,-0.93 -0.754,-1.684 -1.684,-1.684Zm-10.105,8.421c0.464,0 0.842,-0.377 0.842,-0.842c0,-0.465 -0.378,-0.842 -0.842,-0.842c-0.466,0 -0.843,0.377 -0.843,0.842c0,0.465 0.378,0.842 0.843,0.842Zm0,-2.526c0.464,0 0.842,-0.377 0.842,-0.842c0,-0.465 -0.378,-0.842 -0.842,-0.842c-0.466,0 -0.843,0.377 -0.843,0.842c0,0.465 0.378,0.842 0.843,0.842Zm2.526,5.053c0.465,0 0.842,-0.378 0.842,-0.842c0,-0.466 -0.377,-0.843 -0.842,-0.843c-0.465,0 -0.842,0.377 -0.842,0.843c0,0.464 0.377,0.842 0.842,0.842Zm-2.526,-9.264c0.464,0 0.842,-0.377 0.842,-0.842l0,-1.684c0,-0.465 -0.377,-0.842 -0.842,-0.842c-0.465,0 -0.843,0.377 -0.843,0.842l0,1.684c0,0.465 0.378,0.842 0.843,0.842Zm7.579,0c0.464,0 0.842,-0.377 0.842,-0.842l0,-1.684c0,-0.465 -0.378,-0.842 -0.842,-0.842c-0.466,0 -0.842,0.377 -0.842,0.842l0,1.684c0,0.465 0.377,0.842 0.842,0.842Z" style="fill:#333;fill-rule:nonzero;"/></g></svg>