<?xml version="1.0" encoding="UTF-8" standalone="no"?><!DOCTYPE svg PUBLIC "-//W3C//DTD SVG 1.1//EN" "http://www.w3.org/Graphics/SVG/1.1/DTD/svg11.dtd"><svg width="30px" height="30px" version="1.1" xmlns="http://www.w3.org/2000/svg" xmlns:xlink="http://www.w3.org/1999/xlink" xml:space="preserve" xmlns:serif="http://www.serif.com/" style="fill-rule:evenodd;clip-rule:evenodd;stroke-linejoin:round;stroke-miterlimit:2;"><g id="view-grid-off"><path d="M21.791,18.55c0.356,0 0.635,0.279 0.651,0.636c0,0.357 -0.279,0.636 -0.636,0.636l-13.597,0c-0.356,0 -0.635,-0.279 -0.635,-0.636c0,-0.357 0.279,-0.636 0.635,-0.636l13.582,0Zm0,-4.186c0.356,0 0.635,0.279 0.651,0.636c0,0.357 -0.279,0.636 -0.636,0.636l-13.597,0c-0.356,0 -0.635,-0.279 -0.635,-0.636c0,-0.357 0.279,-0.636 0.635,-0.636l13.582,0Zm0,-4.17c0.356,0 0.635,0.279 0.651,0.635c0,0.357 -0.279,0.636 -0.636,0.636l-13.597,0c-0.356,0 -0.635,-0.279 -0.635,-0.636c0,-0.356 0.279,-0.635 0.635,-0.635l13.582,0Z" style="fill:#333;fill-rule:nonzero;"/></g></svg>