<?xml version="1.0" encoding="UTF-8" standalone="no"?><!DOCTYPE svg PUBLIC "-//W3C//DTD SVG 1.1//EN" "http://www.w3.org/Graphics/SVG/1.1/DTD/svg11.dtd"><svg width="25px" height="25px" version="1.1" xmlns="http://www.w3.org/2000/svg" xmlns:xlink="http://www.w3.org/1999/xlink" xml:space="preserve" xmlns:serif="http://www.serif.com/" style="fill-rule:evenodd;clip-rule:evenodd;stroke-linejoin:round;stroke-miterlimit:2;"><rect id="ico-next-off" x="0" y="0" width="25" height="25" style="fill:none;"/><clipPath id="_clip1"><rect x="0" y="0" width="25" height="25"/></clipPath><g clip-path="url(#_clip1)"><path d="M25,12.5c0,-6.899 -5.601,-12.5 -12.5,-12.5c-6.899,0 -12.5,5.601 -12.5,12.5c0,6.899 5.601,12.5 12.5,12.5c6.899,0 12.5,-5.601 12.5,-12.5Z" style="fill:#d5dbec;"/><path d="M10.197,17.303c-0.263,-0.262 -0.263,-0.688 0,-0.951l3.852,-3.852l-3.852,-3.852c-0.263,-0.263 -0.263,-0.689 0,-0.951c0.262,-0.263 0.688,-0.263 0.951,0l4.327,4.328c0.132,0.131 0.197,0.295 0.197,0.475c0,0.18 -0.065,0.344 -0.197,0.475l-4.327,4.328c-0.132,0.131 -0.312,0.197 -0.476,0.197c-0.18,0 -0.344,-0.066 -0.475,-0.197Z" style="fill:#fff;"/></g></svg>