<?xml version="1.0" encoding="UTF-8" standalone="no"?><!DOCTYPE svg PUBLIC "-//W3C//DTD SVG 1.1//EN" "http://www.w3.org/Graphics/SVG/1.1/DTD/svg11.dtd"><svg width="16px" height="16px" version="1.1" xmlns="http://www.w3.org/2000/svg" xmlns:xlink="http://www.w3.org/1999/xlink" xml:space="preserve" xmlns:serif="http://www.serif.com/" style="fill-rule:evenodd;clip-rule:evenodd;stroke-linejoin:round;stroke-miterlimit:2;"><path id="list-expand" d="M16,8c0,4.406 -3.58,8 -8,8c-4.42,0 -8,-3.594 -8,-8c0,-4.406 3.594,-8 8,-8c4.406,0 8,3.594 8,8Zm-14.871,0c0,3.787 3.084,6.871 6.871,6.871c3.787,0 6.871,-3.084 6.871,-6.871c0,-3.787 -3.084,-6.871 -6.871,-6.871c-3.787,0 -6.871,3.084 -6.871,6.871Zm10.864,-1.845c-0.22,-0.22 -0.578,-0.22 -0.799,0l-3.235,3.236l-3.236,-3.236c-0.22,-0.22 -0.578,-0.22 -0.799,0c-0.22,0.22 -0.22,0.578 0,0.799l3.635,3.635c0.111,0.11 0.248,0.165 0.4,0.165c0.151,0 0.289,-0.055 0.399,-0.165l3.635,-3.635c0.11,-0.111 0.165,-0.262 0.165,-0.4c0,-0.151 -0.055,-0.289 -0.165,-0.399Z" style="fill:#9bb1da;fill-rule:nonzero;"/></svg>