<?xml version="1.0" encoding="UTF-8" standalone="no"?><!DOCTYPE svg PUBLIC "-//W3C//DTD SVG 1.1//EN" "http://www.w3.org/Graphics/SVG/1.1/DTD/svg11.dtd"><svg width="40px" height="40px" version="1.1" xmlns="http://www.w3.org/2000/svg" xmlns:xlink="http://www.w3.org/1999/xlink" xml:space="preserve" xmlns:serif="http://www.serif.com/" style="fill-rule:evenodd;clip-rule:evenodd;stroke-linejoin:round;stroke-miterlimit:2;"><g id="calendar"><path d="M5.161,6.398l0,-4.947c0,-0.683 0.553,-1.236 1.237,-1.236c0.683,0 1.236,0.553 1.236,1.236l0,4.947c0,0.683 -0.553,1.236 -1.236,1.236c-0.684,0 -1.237,-0.553 -1.237,-1.236Zm21.022,1.236c0.683,0 1.237,-0.553 1.237,-1.236l0,-4.947c0,-0.683 -0.554,-1.236 -1.237,-1.236c-0.683,0 -1.237,0.553 -1.237,1.236l0,4.947c0,0.683 0.554,1.236 1.237,1.236Zm13.602,22.258c0,5.464 -4.429,9.893 -9.892,9.893c-5.463,0 -9.893,-4.429 -9.893,-9.893c0,-5.463 4.43,-9.892 9.893,-9.892c5.463,0 9.892,4.429 9.892,9.892Zm-2.473,0c0,-4.09 -3.328,-7.419 -7.419,-7.419c-4.092,0 -7.42,3.328 -7.42,7.419c0,4.092 3.328,7.42 7.42,7.42c4.091,0 7.419,-3.328 7.419,-7.42Zm-27.204,-14.838l-4.947,0l0,4.946l4.947,0l0,-4.946Zm-4.947,12.365l4.947,0l0,-4.946l-4.947,0l0,4.946Zm7.42,-7.419l4.946,0l0,-4.946l-4.946,0l0,4.946Zm0,7.419l4.946,0l0,-4.946l-4.946,0l0,4.946Zm-9.893,2.227l0,-17.065l27.205,0l0,4.946l2.473,0l0,-9.646c0,-1.502 -1.198,-2.72 -2.679,-2.72l-1.031,0l0,1.237c0,1.362 -1.109,2.473 -2.473,2.473c-1.364,0 -2.473,-1.111 -2.473,-2.473l0,-1.237l-14.839,0l0,1.237c0,1.362 -1.109,2.473 -2.473,2.473c-1.365,0 -2.473,-1.111 -2.473,-2.473l0,-1.237l-1.03,0c-1.481,0 -2.68,1.218 -2.68,2.72l0,21.766c0,1.497 1.199,2.719 2.68,2.719l14.632,0l0,-2.474l-14.632,0c-0.112,0 -0.207,-0.115 -0.207,-0.246Zm22.258,-9.646l0,-4.946l-4.946,0l0,4.946l4.946,0Zm8.656,9.892l-3.709,0l0,-3.71c0,-0.683 -0.553,-1.236 -1.237,-1.236c-0.684,0 -1.236,0.553 -1.236,1.236l0,4.947c0,0.684 0.552,1.237 1.236,1.237l4.946,0c0.684,0 1.237,-0.553 1.237,-1.237c0,-0.683 -0.553,-1.237 -1.237,-1.237Z" style="fill:#9bb1da;fill-rule:nonzero;"/></g></svg>