<?xml version="1.0" encoding="UTF-8" standalone="no"?><!DOCTYPE svg PUBLIC "-//W3C//DTD SVG 1.1//EN" "http://www.w3.org/Graphics/SVG/1.1/DTD/svg11.dtd"><svg width="30px" height="30px" version="1.1" xmlns="http://www.w3.org/2000/svg" xmlns:xlink="http://www.w3.org/1999/xlink" xml:space="preserve" xmlns:serif="http://www.serif.com/" style="fill-rule:evenodd;clip-rule:evenodd;stroke-linejoin:round;stroke-miterlimit:2;"><path id="back" d="M15,30c8.271,0 15,-6.729 15,-15c0,-8.271 -6.729,-15 -15,-15c-8.271,0 -15,6.729 -15,15c0,8.271 6.729,15 15,15Zm0,-28.501c7.445,0 13.501,6.056 13.501,13.501c0,7.445 -6.056,13.501 -13.501,13.501c-7.445,0 -13.501,-6.056 -13.501,-13.501c0,-7.445 6.056,-13.501 13.501,-13.501Zm-2.832,18.248c0.146,0.147 0.336,0.22 0.532,0.22c0.196,0 0.385,-0.073 0.532,-0.22c0.294,-0.293 0.294,-0.765 0,-1.058l-2.936,-2.937l11.219,0c0.416,0 0.753,-0.336 0.753,-0.752c0,-0.416 -0.337,-0.752 -0.753,-0.752l-11.219,0l2.936,-2.937c0.294,-0.293 0.294,-0.765 0,-1.058c-0.294,-0.294 -0.765,-0.294 -1.058,0l-4.215,4.215c-0.294,0.293 -0.294,0.764 0,1.058l4.209,4.221Z" style="fill:#398bf7;fill-rule:nonzero;"/></svg>