<?xml version="1.0" encoding="UTF-8" standalone="no"?><!DOCTYPE svg PUBLIC "-//W3C//DTD SVG 1.1//EN" "http://www.w3.org/Graphics/SVG/1.1/DTD/svg11.dtd"><svg width="80px" height="80px" version="1.1" xmlns="http://www.w3.org/2000/svg" xmlns:xlink="http://www.w3.org/1999/xlink" xml:space="preserve" xmlns:serif="http://www.serif.com/" style="fill-rule:evenodd;clip-rule:evenodd;stroke-linejoin:round;stroke-miterlimit:2;"><g id="list-empty"><path d="M76.689,17.739l-36.181,-17.467c-0.321,-0.154 -0.695,-0.154 -1.015,0l-36.182,17.467c-0.403,0.195 -0.659,0.603 -0.659,1.051l0,42.42c0,0.448 0.256,0.856 0.659,1.051l36.181,17.467c0.161,0.077 0.334,0.116 0.508,0.116c0.174,0 0.347,-0.039 0.508,-0.116l36.181,-17.467c0.403,-0.195 0.659,-0.603 0.659,-1.051l0,-42.42c0,-0.448 -0.256,-0.856 -0.659,-1.051Zm-1.675,42.738l-33.847,16.34l0,-39.827l8.074,-3.898c0.58,-0.28 0.824,-0.978 0.543,-1.559c-0.28,-0.58 -0.978,-0.824 -1.558,-0.543l-8.226,3.971l-3.237,-1.563c-0.58,-0.28 -1.278,-0.037 -1.558,0.544c-0.281,0.58 -0.037,1.278 0.543,1.559l3.085,1.489l0,39.827l-33.847,-16.34l0,-39.827l25.774,12.443c0.164,0.079 0.336,0.116 0.507,0.116c0.434,0 0.85,-0.243 1.052,-0.66c0.28,-0.581 0.036,-1.279 -0.544,-1.559l-25.271,-12.2l11.596,-5.598l35.064,16.928c0.005,0.007 0.011,0.014 0.016,0.021l0,14.007c0,0.402 0.207,0.775 0.547,0.989c0.189,0.118 0.405,0.178 0.621,0.178c0.173,0 0.347,-0.038 0.507,-0.116l8.734,-4.216c0.403,-0.195 0.659,-0.603 0.659,-1.051l0,-14.085l10.766,-5.197l0,39.827Zm-60.395,-4.527l-5.309,-2.563c-0.581,-0.281 -1.279,-0.037 -1.559,0.543c-0.28,0.581 -0.037,1.279 0.544,1.559l5.309,2.563c0.164,0.079 0.337,0.117 0.507,0.117c0.434,0 0.85,-0.244 1.052,-0.66c0.28,-0.581 0.037,-1.279 -0.544,-1.559Zm4.887,-3.181l-10.189,-4.919c-0.581,-0.28 -1.279,-0.037 -1.559,0.544c-0.28,0.58 -0.037,1.278 0.544,1.559l10.189,4.919c0.164,0.078 0.336,0.116 0.507,0.116c0.433,0 0.85,-0.243 1.052,-0.66c0.28,-0.581 0.036,-1.279 -0.544,-1.559Zm42.408,-25.795l0,12.225l-6.399,3.089l0,-12.225l6.399,-3.089Zm-34.23,-18.361l33.447,16.147l-6.85,3.307l-33.434,-16.141l6.837,-3.313Zm12.316,-5.993l33.496,16.17l-9.71,4.688c-0.061,-0.047 -0.126,-0.09 -0.197,-0.125l-33.269,-16.06l9.68,-4.673Z" style="fill:#d5dbec;"/></g></svg>