<?xml version="1.0" encoding="UTF-8" standalone="no"?><!DOCTYPE svg PUBLIC "-//W3C//DTD SVG 1.1//EN" "http://www.w3.org/Graphics/SVG/1.1/DTD/svg11.dtd"><svg width="22px" height="22px" version="1.1" xmlns="http://www.w3.org/2000/svg" xmlns:xlink="http://www.w3.org/1999/xlink" xml:space="preserve" xmlns:serif="http://www.serif.com/" style="fill-rule:evenodd;clip-rule:evenodd;stroke-linejoin:round;stroke-miterlimit:2;"><g id="header-notification-off"><path id="notifications" d="M11,22c1.21,0 2.2,-0.99 2.2,-2.2l-4.4,0c0,1.21 0.99,2.2 2.2,2.2Zm7.15,-6.6l0,-6.05c0,-3.41 -2.31,-6.16 -5.5,-6.93l0,-0.77c0,-0.88 -0.77,-1.65 -1.65,-1.65c-0.88,0 -1.65,0.77 -1.65,1.65l0,0.77c-3.19,0.77 -5.5,3.52 -5.5,6.93l0,6.05l-2.2,2.2l0,1.1l18.7,0l0,-1.1l-2.2,-2.2Z" style="fill-opacity:0.2;fill-rule:nonzero;"/></g></svg>