<?xml version="1.0" encoding="UTF-8" standalone="no"?><!DOCTYPE svg PUBLIC "-//W3C//DTD SVG 1.1//EN" "http://www.w3.org/Graphics/SVG/1.1/DTD/svg11.dtd"><svg width="16px" height="16px" version="1.1" xmlns="http://www.w3.org/2000/svg" xmlns:xlink="http://www.w3.org/1999/xlink" xml:space="preserve" xmlns:serif="http://www.serif.com/" style="fill-rule:evenodd;clip-rule:evenodd;stroke-linejoin:round;stroke-miterlimit:2;"><g id="checkbox-tri"><path d="M16,2c0,-1.104 -0.896,-2 -2,-2l-12,0c-1.104,0 -2,0.896 -2,2l0,12c0,1.104 0.896,2 2,2l12,0c1.104,0 2,-0.896 2,-2l0,-12Z" style="fill:#54d074;"/><path d="M12,8c0,-0.552 -0.448,-1 -1,-1l-6,0c-0.552,0 -1,0.448 -1,1c0,0.552 0.448,1 1,1l6,0c0.552,0 1,-0.448 1,-1Z" style="fill:#fff;"/></g></svg>