<?xml version="1.0" encoding="UTF-8" standalone="no"?><!DOCTYPE svg PUBLIC "-//W3C//DTD SVG 1.1//EN" "http://www.w3.org/Graphics/SVG/1.1/DTD/svg11.dtd"><svg width="25px" height="25px" version="1.1" xmlns="http://www.w3.org/2000/svg" xmlns:xlink="http://www.w3.org/1999/xlink" xml:space="preserve" xmlns:serif="http://www.serif.com/" style="fill-rule:evenodd;clip-rule:evenodd;stroke-linejoin:round;stroke-miterlimit:2;"><g id="wizard-off"><circle cx="12.5" cy="12.5" r="12.5" style="fill:#fff;"/><path d="M12.661,0.001l0.161,0.003l0.161,0.005l0.16,0.007l0.159,0.009l0.159,0.011l0.159,0.014l0.157,0.015l0.157,0.017l0.157,0.019l0.156,0.02l0.156,0.023l0.154,0.025l0.155,0.026l0.153,0.029l0.153,0.03l0.152,0.032l0.152,0.034l0.15,0.036l0.15,0.038l0.15,0.039l0.148,0.042l0.148,0.043l0.147,0.044l0.147,0.047l0.145,0.048l0.145,0.05l0.144,0.052l0.143,0.053l0.143,0.056l0.141,0.056l0.141,0.059l0.139,0.06l0.139,0.062l0.138,0.063l0.137,0.065l0.136,0.067l0.136,0.068l0.134,0.07l0.133,0.072l0.133,0.073l0.131,0.074l0.13,0.076l0.13,0.078l0.128,0.079l0.127,0.08l0.127,0.082l0.125,0.084l0.124,0.085l0.123,0.086l0.122,0.088l0.121,0.09l0.12,0.09l0.118,0.093l0.118,0.093l0.116,0.095l0.115,0.096l0.114,0.098l0.113,0.099l0.112,0.1l0.11,0.101l0.109,0.103l0.108,0.104l0.107,0.106l0.106,0.107l0.104,0.108l0.103,0.109l0.101,0.11l0.1,0.112l0.099,0.113l0.098,0.114l0.096,0.115l0.095,0.116l0.093,0.118l0.093,0.118l0.09,0.12l0.09,0.121l0.088,0.122l0.086,0.123l0.085,0.124l0.084,0.125l0.082,0.127l0.08,0.127l0.079,0.128l0.078,0.13l0.076,0.13l0.074,0.131l0.073,0.133l0.072,0.133l0.07,0.134l0.068,0.136l0.067,0.136l0.065,0.137l0.063,0.138l0.062,0.139l0.06,0.139l0.059,0.141l0.056,0.141l0.056,0.143l0.053,0.143l0.052,0.144l0.05,0.145l0.048,0.145l0.047,0.147l0.044,0.147l0.043,0.148l0.042,0.148l0.039,0.15l0.038,0.15l0.036,0.15l0.034,0.152l0.032,0.152l0.03,0.153l0.029,0.153l0.026,0.155l0.025,0.154l0.023,0.156l0.02,0.156l0.019,0.157l0.017,0.157l0.015,0.157l0.014,0.159l0.011,0.159l0.009,0.159l0.007,0.16l0.005,0.161l0.003,0.161l0.001,0.161l-0.001,0.161l-0.003,0.161l-0.005,0.161l-0.007,0.16l-0.009,0.159l-0.011,0.159l-0.014,0.159l-0.015,0.157l-0.017,0.157l-0.019,0.157l-0.02,0.156l-0.023,0.156l-0.025,0.154l-0.026,0.155l-0.029,0.153l-0.03,0.153l-0.032,0.152l-0.034,0.152l-0.036,0.15l-0.038,0.15l-0.039,0.15l-0.042,0.148l-0.043,0.148l-0.044,0.147l-0.047,0.147l-0.048,0.145l-0.05,0.145l-0.052,0.144l-0.053,0.143l-0.056,0.143l-0.056,0.141l-0.059,0.141l-0.06,0.139l-0.062,0.139l-0.063,0.138l-0.065,0.137l-0.067,0.136l-0.068,0.136l-0.07,0.134l-0.072,0.133l-0.073,0.133l-0.074,0.131l-0.076,0.13l-0.078,0.13l-0.079,0.128l-0.08,0.127l-0.082,0.127l-0.084,0.125l-0.085,0.124l-0.086,0.123l-0.088,0.122l-0.09,0.121l-0.09,0.12l-0.093,0.118l-0.093,0.118l-0.095,0.116l-0.096,0.115l-0.098,0.114l-0.099,0.113l-0.1,0.112l-0.101,0.11l-0.103,0.109l-0.104,0.108l-0.106,0.107l-0.107,0.106l-0.108,0.104l-0.109,0.103l-0.11,0.101l-0.112,0.1l-0.113,0.099l-0.114,0.098l-0.115,0.096l-0.116,0.095l-0.118,0.093l-0.118,0.093l-0.12,0.09l-0.121,0.09l-0.122,0.088l-0.123,0.086l-0.124,0.085l-0.125,0.084l-0.127,0.082l-0.127,0.08l-0.128,0.079l-0.13,0.078l-0.13,0.076l-0.131,0.074l-0.133,0.073l-0.133,0.072l-0.134,0.07l-0.136,0.068l-0.136,0.067l-0.137,0.065l-0.138,0.063l-0.139,0.062l-0.139,0.06l-0.141,0.059l-0.141,0.056l-0.143,0.056l-0.143,0.053l-0.144,0.052l-0.145,0.05l-0.145,0.048l-0.147,0.047l-0.147,0.044l-0.148,0.043l-0.148,0.042l-0.15,0.039l-0.15,0.038l-0.15,0.036l-0.152,0.034l-0.152,0.032l-0.153,0.03l-0.153,0.029l-0.155,0.026l-0.154,0.025l-0.156,0.023l-0.156,0.02l-0.157,0.019l-0.157,0.017l-0.157,0.015l-0.159,0.014l-0.159,0.011l-0.159,0.009l-0.16,0.007l-0.161,0.005l-0.161,0.003l-0.161,0.001l-0.161,-0.001l-0.161,-0.003l-0.161,-0.005l-0.16,-0.007l-0.159,-0.009l-0.159,-0.011l-0.159,-0.014l-0.157,-0.015l-0.157,-0.017l-0.157,-0.019l-0.156,-0.02l-0.156,-0.023l-0.154,-0.025l-0.155,-0.026l-0.153,-0.029l-0.153,-0.03l-0.152,-0.032l-0.152,-0.034l-0.15,-0.036l-0.15,-0.038l-0.15,-0.039l-0.148,-0.042l-0.148,-0.043l-0.147,-0.044l-0.147,-0.047l-0.145,-0.048l-0.145,-0.05l-0.144,-0.052l-0.143,-0.053l-0.143,-0.056l-0.141,-0.056l-0.141,-0.059l-0.139,-0.06l-0.139,-0.062l-0.138,-0.063l-0.137,-0.065l-0.136,-0.067l-0.136,-0.068l-0.134,-0.07l-0.133,-0.072l-0.133,-0.073l-0.131,-0.074l-0.13,-0.076l-0.13,-0.078l-0.128,-0.079l-0.127,-0.08l-0.127,-0.082l-0.125,-0.084l-0.124,-0.085l-0.123,-0.086l-0.122,-0.088l-0.121,-0.09l-0.12,-0.09l-0.118,-0.093l-0.118,-0.093l-0.116,-0.095l-0.115,-0.096l-0.114,-0.098l-0.113,-0.099l-0.112,-0.1l-0.11,-0.101l-0.109,-0.103l-0.108,-0.104l-0.107,-0.106l-0.106,-0.107l-0.104,-0.108l-0.103,-0.109l-0.101,-0.11l-0.1,-0.112l-0.099,-0.113l-0.098,-0.114l-0.096,-0.115l-0.095,-0.116l-0.093,-0.118l-0.093,-0.118l-0.09,-0.12l-0.09,-0.121l-0.088,-0.122l-0.086,-0.123l-0.085,-0.124l-0.084,-0.125l-0.082,-0.127l-0.08,-0.127l-0.079,-0.128l-0.078,-0.13l-0.076,-0.13l-0.074,-0.131l-0.073,-0.133l-0.072,-0.133l-0.07,-0.134l-0.068,-0.136l-0.067,-0.136l-0.065,-0.137l-0.063,-0.138l-0.062,-0.139l-0.06,-0.139l-0.059,-0.141l-0.056,-0.141l-0.056,-0.143l-0.053,-0.143l-0.052,-0.144l-0.05,-0.145l-0.048,-0.145l-0.047,-0.147l-0.044,-0.147l-0.043,-0.148l-0.042,-0.148l-0.039,-0.15l-0.038,-0.15l-0.036,-0.15l-0.034,-0.152l-0.032,-0.152l-0.03,-0.153l-0.029,-0.153l-0.026,-0.155l-0.025,-0.154l-0.023,-0.156l-0.02,-0.156l-0.019,-0.157l-0.017,-0.157l-0.015,-0.157l-0.014,-0.159l-0.011,-0.159l-0.009,-0.159l-0.007,-0.16l-0.005,-0.161l-0.003,-0.161l-0.001,-0.161l0.001,-0.161l0.003,-0.161l0.005,-0.161l0.007,-0.16l0.009,-0.159l0.011,-0.159l0.014,-0.159l0.015,-0.157l0.017,-0.157l0.019,-0.157l0.02,-0.156l0.023,-0.156l0.025,-0.154l0.026,-0.155l0.029,-0.153l0.03,-0.153l0.032,-0.152l0.034,-0.152l0.036,-0.15l0.038,-0.15l0.039,-0.15l0.042,-0.148l0.043,-0.148l0.044,-0.147l0.047,-0.147l0.048,-0.145l0.05,-0.145l0.052,-0.144l0.053,-0.143l0.056,-0.143l0.056,-0.141l0.059,-0.141l0.06,-0.139l0.062,-0.139l0.063,-0.138l0.065,-0.137l0.067,-0.136l0.068,-0.136l0.07,-0.134l0.072,-0.133l0.073,-0.133l0.074,-0.131l0.076,-0.13l0.078,-0.13l0.079,-0.128l0.08,-0.127l0.082,-0.127l0.084,-0.125l0.085,-0.124l0.086,-0.123l0.088,-0.122l0.09,-0.121l0.09,-0.12l0.093,-0.118l0.093,-0.118l0.095,-0.116l0.096,-0.115l0.098,-0.114l0.099,-0.113l0.1,-0.112l0.101,-0.11l0.103,-0.109l0.104,-0.108l0.106,-0.107l0.107,-0.106l0.108,-0.104l0.109,-0.103l0.11,-0.101l0.112,-0.1l0.113,-0.099l0.114,-0.098l0.115,-0.096l0.116,-0.095l0.118,-0.093l0.118,-0.093l0.12,-0.09l0.121,-0.09l0.122,-0.088l0.123,-0.086l0.124,-0.085l0.125,-0.084l0.127,-0.082l0.127,-0.08l0.128,-0.079l0.13,-0.078l0.13,-0.076l0.131,-0.074l0.133,-0.073l0.133,-0.072l0.134,-0.07l0.136,-0.068l0.136,-0.067l0.137,-0.065l0.138,-0.063l0.139,-0.062l0.139,-0.06l0.141,-0.059l0.141,-0.056l0.143,-0.056l0.143,-0.053l0.144,-0.052l0.145,-0.05l0.145,-0.048l0.147,-0.047l0.147,-0.044l0.148,-0.043l0.148,-0.042l0.15,-0.039l0.15,-0.038l0.15,-0.036l0.152,-0.034l0.152,-0.032l0.153,-0.03l0.153,-0.029l0.155,-0.026l0.154,-0.025l0.156,-0.023l0.156,-0.02l0.157,-0.019l0.157,-0.017l0.157,-0.015l0.159,-0.014l0.159,-0.011l0.159,-0.009l0.16,-0.007l0.161,-0.005l0.161,-0.003l0.161,-0.001l0.161,0.001Zm-0.305,1.333l-0.145,0.003l-0.143,0.005l-0.143,0.006l-0.143,0.008l-0.142,0.01l-0.142,0.012l-0.14,0.013l-0.141,0.015l-0.14,0.017l-0.139,0.019l-0.139,0.02l-0.138,0.022l-0.138,0.024l-0.137,0.025l-0.136,0.027l-0.136,0.029l-0.135,0.03l-0.135,0.032l-0.134,0.034l-0.133,0.035l-0.133,0.037l-0.132,0.038l-0.131,0.04l-0.131,0.042l-0.13,0.043l-0.129,0.045l-0.128,0.046l-0.128,0.048l-0.127,0.049l-0.126,0.051l-0.126,0.052l-0.125,0.054l-0.124,0.055l-0.123,0.056l-0.122,0.058l-0.122,0.06l-0.12,0.061l-0.12,0.062l-0.12,0.064l-0.118,0.065l-0.117,0.067l-0.116,0.068l-0.116,0.069l-0.115,0.071l-0.113,0.072l-0.113,0.073l-0.112,0.075l-0.111,0.076l-0.11,0.077l-0.109,0.079l-0.108,0.079l-0.107,0.081l-0.106,0.083l-0.105,0.083l-0.105,0.085l-0.102,0.086l-0.102,0.087l-0.101,0.089l-0.1,0.089l-0.099,0.091l-0.097,0.092l-0.097,0.094l-0.095,0.094l-0.094,0.095l-0.094,0.097l-0.092,0.097l-0.09,0.099l-0.09,0.1l-0.088,0.101l-0.088,0.102l-0.086,0.103l-0.085,0.104l-0.083,0.105l-0.083,0.106l-0.081,0.107l-0.08,0.108l-0.078,0.109l-0.077,0.11l-0.076,0.111l-0.075,0.112l-0.073,0.113l-0.072,0.113l-0.071,0.115l-0.069,0.116l-0.068,0.116l-0.067,0.117l-0.065,0.119l-0.064,0.118l-0.062,0.121l-0.061,0.12l-0.06,0.122l-0.058,0.122l-0.056,0.123l-0.055,0.124l-0.054,0.125l-0.052,0.126l-0.051,0.126l-0.049,0.127l-0.048,0.128l-0.046,0.128l-0.045,0.129l-0.043,0.13l-0.042,0.131l-0.04,0.131l-0.038,0.132l-0.037,0.133l-0.035,0.133l-0.034,0.134l-0.032,0.135l-0.03,0.135l-0.029,0.136l-0.027,0.136l-0.025,0.137l-0.024,0.138l-0.022,0.138l-0.02,0.139l-0.019,0.139l-0.017,0.14l-0.015,0.141l-0.013,0.141l-0.012,0.141l-0.01,0.142l-0.008,0.143l-0.006,0.143l-0.005,0.143l-0.003,0.144l-0.001,0.145l0.001,0.145l0.003,0.144l0.005,0.143l0.006,0.143l0.008,0.143l0.01,0.142l0.012,0.141l0.013,0.141l0.015,0.141l0.017,0.14l0.019,0.139l0.02,0.139l0.022,0.138l0.024,0.138l0.025,0.137l0.027,0.136l0.029,0.136l0.03,0.135l0.032,0.135l0.034,0.134l0.035,0.133l0.037,0.133l0.038,0.132l0.04,0.131l0.042,0.131l0.043,0.13l0.045,0.129l0.046,0.128l0.048,0.128l0.049,0.127l0.051,0.126l0.052,0.126l0.054,0.125l0.055,0.124l0.056,0.123l0.058,0.122l0.06,0.122l0.061,0.12l0.062,0.121l0.064,0.118l0.065,0.119l0.067,0.117l0.068,0.116l0.069,0.116l0.071,0.115l0.072,0.113l0.073,0.113l0.075,0.112l0.076,0.111l0.077,0.11l0.078,0.109l0.08,0.108l0.081,0.107l0.083,0.106l0.083,0.105l0.085,0.104l0.086,0.103l0.088,0.102l0.088,0.101l0.09,0.1l0.09,0.099l0.092,0.097l0.094,0.097l0.094,0.095l0.095,0.094l0.097,0.094l0.097,0.092l0.099,0.091l0.1,0.089l0.101,0.089l0.102,0.087l0.102,0.086l0.105,0.085l0.105,0.083l0.106,0.083l0.107,0.081l0.108,0.079l0.109,0.079l0.11,0.077l0.111,0.076l0.112,0.075l0.113,0.073l0.113,0.072l0.115,0.071l0.116,0.069l0.116,0.068l0.117,0.067l0.118,0.065l0.12,0.064l0.12,0.062l0.12,0.061l0.122,0.06l0.122,0.058l0.123,0.056l0.124,0.055l0.125,0.054l0.126,0.052l0.126,0.051l0.127,0.049l0.128,0.048l0.128,0.046l0.129,0.045l0.13,0.043l0.131,0.042l0.131,0.04l0.132,0.038l0.133,0.037l0.133,0.035l0.134,0.034l0.135,0.032l0.135,0.03l0.136,0.029l0.136,0.027l0.137,0.025l0.138,0.024l0.138,0.022l0.139,0.02l0.139,0.019l0.14,0.017l0.141,0.015l0.14,0.013l0.142,0.012l0.142,0.01l0.143,0.008l0.143,0.006l0.143,0.005l0.145,0.003l0.144,0.001l0.144,-0.001l0.145,-0.003l0.143,-0.005l0.143,-0.006l0.143,-0.008l0.142,-0.01l0.142,-0.012l0.14,-0.013l0.141,-0.015l0.14,-0.017l0.139,-0.019l0.139,-0.02l0.138,-0.022l0.138,-0.024l0.137,-0.025l0.136,-0.027l0.136,-0.029l0.135,-0.03l0.135,-0.032l0.134,-0.034l0.133,-0.035l0.133,-0.037l0.132,-0.038l0.131,-0.04l0.131,-0.042l0.13,-0.043l0.129,-0.045l0.128,-0.046l0.128,-0.048l0.127,-0.049l0.126,-0.051l0.126,-0.052l0.125,-0.054l0.124,-0.055l0.123,-0.056l0.122,-0.058l0.122,-0.06l0.12,-0.061l0.12,-0.062l0.12,-0.064l0.118,-0.065l0.117,-0.067l0.116,-0.068l0.116,-0.069l0.115,-0.071l0.113,-0.072l0.113,-0.073l0.112,-0.075l0.111,-0.076l0.11,-0.077l0.109,-0.079l0.108,-0.079l0.107,-0.081l0.106,-0.083l0.105,-0.083l0.105,-0.085l0.102,-0.086l0.102,-0.087l0.101,-0.089l0.1,-0.089l0.099,-0.091l0.097,-0.092l0.097,-0.094l0.095,-0.094l0.094,-0.095l0.094,-0.097l0.092,-0.097l0.09,-0.099l0.09,-0.1l0.088,-0.101l0.088,-0.102l0.086,-0.103l0.085,-0.104l0.083,-0.105l0.083,-0.106l0.081,-0.107l0.08,-0.108l0.078,-0.109l0.077,-0.11l0.076,-0.111l0.075,-0.112l0.073,-0.113l0.072,-0.113l0.071,-0.115l0.069,-0.116l0.068,-0.116l0.067,-0.117l0.065,-0.119l0.064,-0.118l0.062,-0.121l0.061,-0.12l0.06,-0.122l0.058,-0.122l0.056,-0.123l0.055,-0.124l0.054,-0.125l0.052,-0.126l0.051,-0.126l0.049,-0.127l0.048,-0.128l0.046,-0.128l0.045,-0.129l0.043,-0.13l0.042,-0.131l0.04,-0.131l0.038,-0.132l0.037,-0.133l0.035,-0.133l0.034,-0.134l0.032,-0.135l0.03,-0.135l0.029,-0.136l0.027,-0.136l0.025,-0.137l0.024,-0.138l0.022,-0.138l0.02,-0.139l0.019,-0.139l0.017,-0.14l0.015,-0.141l0.013,-0.141l0.012,-0.141l0.01,-0.142l0.008,-0.143l0.006,-0.143l0.005,-0.143l0.003,-0.144l0.001,-0.145l-0.001,-0.145l-0.003,-0.144l-0.005,-0.143l-0.006,-0.143l-0.008,-0.143l-0.01,-0.142l-0.012,-0.141l-0.013,-0.141l-0.015,-0.141l-0.017,-0.14l-0.019,-0.139l-0.02,-0.139l-0.022,-0.138l-0.024,-0.138l-0.025,-0.137l-0.027,-0.136l-0.029,-0.136l-0.03,-0.135l-0.032,-0.135l-0.034,-0.134l-0.035,-0.133l-0.037,-0.133l-0.038,-0.132l-0.04,-0.131l-0.042,-0.131l-0.043,-0.13l-0.045,-0.129l-0.046,-0.128l-0.048,-0.128l-0.049,-0.127l-0.051,-0.126l-0.052,-0.126l-0.054,-0.125l-0.055,-0.124l-0.056,-0.123l-0.058,-0.122l-0.06,-0.122l-0.061,-0.12l-0.062,-0.121l-0.064,-0.118l-0.065,-0.119l-0.067,-0.117l-0.068,-0.116l-0.069,-0.116l-0.071,-0.115l-0.072,-0.113l-0.073,-0.113l-0.075,-0.112l-0.076,-0.111l-0.077,-0.11l-0.078,-0.109l-0.08,-0.108l-0.081,-0.107l-0.083,-0.106l-0.083,-0.105l-0.085,-0.104l-0.086,-0.103l-0.088,-0.102l-0.088,-0.101l-0.09,-0.1l-0.09,-0.099l-0.092,-0.097l-0.094,-0.097l-0.094,-0.095l-0.095,-0.094l-0.097,-0.094l-0.097,-0.092l-0.099,-0.091l-0.1,-0.089l-0.101,-0.089l-0.102,-0.087l-0.102,-0.086l-0.105,-0.085l-0.105,-0.083l-0.106,-0.083l-0.107,-0.081l-0.108,-0.079l-0.109,-0.079l-0.11,-0.077l-0.111,-0.076l-0.112,-0.075l-0.113,-0.073l-0.113,-0.072l-0.115,-0.071l-0.116,-0.069l-0.116,-0.068l-0.117,-0.067l-0.118,-0.065l-0.12,-0.064l-0.12,-0.062l-0.12,-0.061l-0.122,-0.06l-0.122,-0.058l-0.123,-0.056l-0.124,-0.055l-0.125,-0.054l-0.126,-0.052l-0.126,-0.051l-0.127,-0.049l-0.128,-0.048l-0.128,-0.046l-0.129,-0.045l-0.13,-0.043l-0.131,-0.042l-0.131,-0.04l-0.132,-0.038l-0.133,-0.037l-0.133,-0.035l-0.134,-0.034l-0.135,-0.032l-0.135,-0.03l-0.136,-0.029l-0.136,-0.027l-0.137,-0.025l-0.138,-0.024l-0.138,-0.022l-0.139,-0.02l-0.139,-0.019l-0.14,-0.017l-0.141,-0.015l-0.14,-0.013l-0.142,-0.012l-0.142,-0.01l-0.143,-0.008l-0.143,-0.006l-0.143,-0.005l-0.145,-0.003l-0.144,-0.001l-0.144,0.001Z" style="fill:#bfbfbf;"/></g></svg>