<?xml version="1.0" encoding="UTF-8" standalone="no"?><!DOCTYPE svg PUBLIC "-//W3C//DTD SVG 1.1//EN" "http://www.w3.org/Graphics/SVG/1.1/DTD/svg11.dtd"><svg width="24px" height="55px" version="1.1" xmlns="http://www.w3.org/2000/svg" xmlns:xlink="http://www.w3.org/1999/xlink" xml:space="preserve" xmlns:serif="http://www.serif.com/" style="fill-rule:evenodd;clip-rule:evenodd;stroke-linejoin:round;stroke-miterlimit:2;"><g id="wizard-split"><path d="M13,52l-1,0l0,-1l1,0l0,1Zm0,-3l-1,0l0,-1l1,0l0,1Zm0,-3l-1,0l0,-1l1,0l0,1Zm0,-3l-1,0l0,-1l1,0l0,1Zm0,-3l-1,0l0,-1l1,0l0,1Zm0,-3l-1,0l0,-1l1,0l0,1Zm0,-3l-1,0l0,-1l1,0l0,1Zm0,-3l-1,0l0,-1l1,0l0,1Zm0,-3l-1,0l0,-1l1,0l0,1Zm0,-3l-1,0l0,-1l1,0l0,1Zm0,-3l-1,0l0,-1l1,0l0,1Zm0,-3l-1,0l0,-1l1,0l0,1Zm0,-3l-1,0l0,-1l1,0l0,1Zm0,-3l-1,0l0,-1l1,0l0,1Zm0,-3l-1,0l0,-1l1,0l0,1Zm0,-3l-1,0l0,-1l1,0l0,1Zm0,-3l-1,0l0,-1l1,0l0,1Z" style="fill:#9bb1da;"/></g></svg>