<?xml version="1.0" encoding="UTF-8" standalone="no"?><!DOCTYPE svg PUBLIC "-//W3C//DTD SVG 1.1//EN" "http://www.w3.org/Graphics/SVG/1.1/DTD/svg11.dtd"><svg width="30px" height="30px" version="1.1" xmlns="http://www.w3.org/2000/svg" xmlns:xlink="http://www.w3.org/1999/xlink" xml:space="preserve" xmlns:serif="http://www.serif.com/" style="fill-rule:evenodd;clip-rule:evenodd;stroke-linejoin:round;stroke-miterlimit:2;"><g id="historico-nota"><path d="M24.202,11.105c-1.055,-2.46 -2.847,-4.248 -5.325,-5.306c-1.239,-0.529 -2.537,-0.799 -3.893,-0.799c-1.356,0 -2.645,0.267 -3.882,0.799c-2.459,1.055 -4.258,2.842 -5.315,5.306c-0.529,1.234 -0.787,2.527 -0.787,3.884c0,1.357 0.258,2.661 0.787,3.895c1.057,2.464 2.857,4.262 5.315,5.318c1.238,0.531 2.526,0.798 3.882,0.798c1.355,0 2.654,-0.27 3.892,-0.798c2.479,-1.058 4.271,-2.858 5.326,-5.318c0.531,-1.238 0.798,-2.538 0.798,-3.895c0,-1.357 -0.267,-2.645 -0.798,-3.884Zm-1.597,8.304c-0.785,1.347 -1.86,2.416 -3.215,3.206c-1.346,0.785 -2.821,1.182 -4.406,1.182c-1.192,0 -2.329,-0.23 -3.412,-0.701c-1.083,-0.47 -2.017,-1.088 -2.799,-1.87c-0.782,-0.783 -1.405,-1.727 -1.87,-2.812c-0.464,-1.082 -0.689,-2.232 -0.689,-3.425c0,-1.586 0.39,-3.055 1.17,-4.398c0.784,-1.348 1.859,-2.418 3.204,-3.206c1.345,-0.788 2.81,-1.182 4.396,-1.182c1.585,0 3.06,0.397 4.406,1.182c1.355,0.79 2.428,1.86 3.215,3.206c0.787,1.345 1.181,2.812 1.181,4.398c0,1.587 -0.391,3.065 -1.181,4.42Zm-6.987,-4.507l0,-5.665c0,-0.339 -0.295,-0.612 -0.634,-0.612c-0.317,0 -0.602,0.273 -0.602,0.612l0,5.752c0,0.011 0.022,0.055 0.022,0.088c-0.022,0.196 0.033,0.36 0.164,0.492l3.27,3.269c0.219,0.219 0.623,0.219 0.842,0c0.251,-0.251 0.235,-0.616 0,-0.853l-3.062,-3.083Z" style="fill:#398bf7;fill-rule:nonzero;"/></g></svg>