<?xml version="1.0" encoding="UTF-8" standalone="no"?><!DOCTYPE svg PUBLIC "-//W3C//DTD SVG 1.1//EN" "http://www.w3.org/Graphics/SVG/1.1/DTD/svg11.dtd"><svg width="30px" height="30px" version="1.1" xmlns="http://www.w3.org/2000/svg" xmlns:xlink="http://www.w3.org/1999/xlink" xml:space="preserve" xmlns:serif="http://www.serif.com/" style="fill-rule:evenodd;clip-rule:evenodd;stroke-linejoin:round;stroke-miterlimit:2;"><g id="historico-avatar"><g id="avatar"><path d="M4.194,4.594c5.744,-5.965 15.247,-6.145 21.212,-0.4c5.965,5.744 6.145,15.247 0.4,21.212c-5.744,5.965 -15.247,6.145 -21.212,0.4c-5.965,-5.744 -6.145,-15.247 -0.4,-21.212Z" style="fill:#d0d6eb;"/><path d="M5.332,26.472l0,-2.742c0,-1.17 0.897,-2.342 2.703,-3.252c3.702,-1.864 9.828,-1.92 13.672,-0.125c1.97,0.92 2.961,2.148 2.961,3.377l0,0l0,2.741l0,0.002c-5.549,4.686 -13.745,4.719 -19.336,-0.001Zm6.416,-11.201c-1.864,-1.795 -1.92,-4.764 -0.125,-6.629c1.795,-1.864 4.765,-1.92 6.629,-0.125c1.864,1.795 1.92,4.765 0.125,6.629c-1.795,1.864 -4.765,1.92 -6.629,0.125Z" style="fill:#9bb1da;"/></g></g></svg>